<?xml version="1.0" encoding="iso-8859-1"?>
<!-- Generator: Adobe Illustrator 19.0.0, SVG Export Plug-In . SVG Version: 6.00 Build 0)  -->
<svg version="1.1" id="Capa_1" xmlns="http://www.w3.org/2000/svg" xmlns:xlink="http://www.w3.org/1999/xlink" x="0px" y="0px"
	 viewBox="0 0 491.276 491.276" style="enable-background:new 0 0 491.276 491.276;" xml:space="preserve">
<rect x="361.341" y="277.379" transform="matrix(-0.7071 0.7071 -0.7071 -0.7071 881.259 246.2888)" style="fill:#D4C8B8;" width="56.56" height="56.56"/>
<polygon style="fill:#47821B;" points="429.657,305.638 389.657,345.638 349.657,305.638 301.657,353.638 189.657,353.638 
	141.657,305.638 101.657,345.638 61.657,305.638 13.657,353.638 13.657,481.638 477.657,481.638 477.657,353.638 "/>
<rect x="73.364" y="277.356" transform="matrix(-0.7071 0.7071 -0.7071 -0.7071 389.6352 449.8801)" style="fill:#D4C8B8;" width="56.56" height="56.56"/>
<polygon style="fill:#EBE5DD;" points="245.657,377.638 285.657,417.638 325.657,377.638 245.657,297.638 165.657,377.638 
	205.657,417.638 "/>
<polygon style="fill:#69C229;" points="325.657,377.638 285.657,417.638 245.657,377.638 205.657,417.638 165.657,377.638 
	61.657,481.638 429.657,481.638 "/>
<g>
	<rect x="453.657" y="193.638" style="fill:#FFD422;" width="32" height="16"/>
	<rect x="5.657" y="193.638" style="fill:#FFD422;" width="48" height="16"/>
	
		<rect x="140.248" y="31.786" transform="matrix(-0.866 0.5 -0.5 -0.866 299.4537 11.039)" style="fill:#FFD422;" width="16" height="27.704"/>
	
		<rect x="161.032" y="72.39" transform="matrix(-0.8661 0.4998 -0.4998 -0.8661 356.236 67.8433)" style="fill:#FFD422;" width="16" height="18.48"/>
	<rect x="237.657" y="9.638" style="fill:#FFD422;" width="16" height="48"/>
	<rect x="237.657" y="65.638" style="fill:#FFD422;" width="16" height="16"/>
</g>
<path style="fill:#5AAAE7;" d="M229.657,153.638c0,17.68-14.32,32-32,32h-80c-13.28,0-24-10.72-24-24c0-13.28,10.72-24,24-24
	c0-22.08,17.92-40,40-40c14.24,0,26.72,7.44,33.84,18.64c1.12,1.76,2.08,3.6,2.88,5.52c0.08,0,0.08,0,0.08,0
	c1.04-0.08,2.16-0.16,3.2-0.16C215.337,121.638,229.657,135.958,229.657,153.638z"/>
<rect x="61.657" y="193.638" style="fill:#FFD422;" width="16" height="16"/>
<rect id="SVGCleanerId_0" x="341.657" y="209.638" width="16" height="16"/>
<g>
	<rect id="SVGCleanerId_0_1_" x="341.657" y="209.638" width="16" height="16"/>
</g>
<g>
	
		<rect x="17.654" y="25.355" transform="matrix(-0.7071 0.7071 -0.7071 -0.7071 81.7198 73.4208)" style="fill:#FFD422;" width="16" height="56.56"/>
	
		<rect x="49.659" y="79.985" transform="matrix(-0.7071 0.7071 -0.7071 -0.7071 158.9866 105.4271)" style="fill:#FFD422;" width="16" height="11.312"/>
	
		<rect x="73.659" y="92.672" transform="matrix(-0.7071 0.7071 -0.7071 -0.7071 216.9299 129.4319)" style="fill:#FFD422;" width="16" height="33.944"/>
	
		<rect x="329.188" y="37.665" transform="matrix(-0.4999 0.8661 -0.8661 -0.4999 554.0812 -228.6026)" style="fill:#FFD422;" width="27.704" height="16"/>
	
		<rect x="313.026" y="73.652" transform="matrix(-0.4999 0.8661 -0.8661 -0.4999 554.0896 -156.6331)" style="fill:#FFD422;" width="18.48" height="16"/>
	
		<rect x="437.342" y="45.646" transform="matrix(-0.7071 0.7071 -0.7071 -0.7071 832.8005 -237.6652)" style="fill:#FFD422;" width="56.56" height="16"/>
	
		<rect x="428.004" y="77.639" transform="matrix(-0.7071 0.7071 -0.7071 -0.7071 800.8602 -160.4483)" style="fill:#FFD422;" width="11.312" height="16"/>
	
		<rect x="392.696" y="101.628" transform="matrix(-0.7071 0.7071 -0.7071 -0.7071 776.8667 -102.5323)" style="fill:#FFD422;" width="33.944" height="16"/>
</g>
<path style="fill:#D4C8B8;" d="M197.657,233.638c0,4.4-1.76,8.4-4.72,11.28c-2.16,2.24-4.88,3.76-8,4.4h-0.08
	c-1.04,0.24-2.08,0.32-3.2,0.32h-32c-8.8,0-16-7.2-16-16c0-4.4,1.76-8.4,4.72-11.28c2.88-2.96,6.88-4.72,11.28-4.72h32
	C190.457,217.638,197.657,224.838,197.657,233.638z"/>
<g>
	
		<rect x="370.348" y="129.635" transform="matrix(-0.7071 0.7071 -0.7071 -0.7071 748.8569 -34.917)" style="fill:#FFD422;" width="22.624" height="16"/>
	
		<rect x="356.004" y="149.639" transform="matrix(-0.7071 0.7071 -0.7071 -0.7071 728.86 13.3748)" style="fill:#FFD422;" width="11.312" height="16"/>
</g>
<path style="fill:#90C9F5;" d="M429.657,201.638c0,4.4-1.76,8.4-4.72,11.28c-2.88,2.96-6.88,4.72-11.28,4.72h-56c8.8,0,16,7.2,16,16
	c0,8.8-7.2,16-16,16h-72c-8.8,0-16-7.2-16-16c0-4.4,1.76-8.4,4.72-11.28c2.88-2.96,6.88-4.72,11.28-4.72h32v-16c0-8.8,7.2-16,16-16
	h80C422.457,185.638,429.657,192.838,429.657,201.638z"/>
<path style="fill:#FFD422;" d="M333.657,185.638c-8.8,0-16,7.2-16,16v16h-32c-4.4,0-8.4,1.76-11.28,4.72
	c-2.96,2.88-4.72,6.88-4.72,11.28c0,8.8,7.2,16,16,16h20.4c-15.76,14.88-37.04,24-60.4,24c-23.52,0-44.96-9.2-60.72-24.32
	c3.12-0.64,5.84-2.16,8-4.4c2.96-2.88,4.72-6.88,4.72-11.28c0-8.8-7.2-16-16-16h-18c-3.84-9.92-6-20.72-6-32h40
	c17.68,0,32-14.32,32-32c0-17.68-14.32-32-32-32c-1.04,0-2.16,0.08-3.2,0.16c0,0,0,0-0.08,0c-0.8-1.92-1.76-3.76-2.88-5.52
	c14.88-11.68,33.68-18.64,54.16-18.64C294.297,97.638,333.657,136.998,333.657,185.638z"/>
<g>
</g>
<g>
</g>
<g>
</g>
<g>
</g>
<g>
</g>
<g>
</g>
<g>
</g>
<g>
</g>
<g>
</g>
<g>
</g>
<g>
</g>
<g>
</g>
<g>
</g>
<g>
</g>
<g>
</g>
</svg>
